<svg id="visual" viewBox="0 0 900 600" width="900" height="600" xmlns="http://www.w3.org/2000/svg" xmlns:xlink="http://www.w3.org/1999/xlink" version="1.1"><rect x="0" y="0" width="900" height="600" fill="#013238"></rect><defs><linearGradient id="grad1_0" x1="33.3%" y1="0%" x2="100%" y2="100%"><stop offset="20%" stop-color="#fde791" stop-opacity="1"></stop><stop offset="80%" stop-color="#fde791" stop-opacity="1"></stop></linearGradient></defs><defs><linearGradient id="grad1_1" x1="33.3%" y1="0%" x2="100%" y2="100%"><stop offset="20%" stop-color="#fde791" stop-opacity="1"></stop><stop offset="80%" stop-color="#c7d082" stop-opacity="1"></stop></linearGradient></defs><defs><linearGradient id="grad1_2" x1="33.3%" y1="0%" x2="100%" y2="100%"><stop offset="20%" stop-color="#96b779" stop-opacity="1"></stop><stop offset="80%" stop-color="#c7d082" stop-opacity="1"></stop></linearGradient></defs><defs><linearGradient id="grad1_3" x1="33.3%" y1="0%" x2="100%" y2="100%"><stop offset="20%" stop-color="#96b779" stop-opacity="1"></stop><stop offset="80%" stop-color="#6a9d70" stop-opacity="1"></stop></linearGradient></defs><defs><linearGradient id="grad1_4" x1="33.3%" y1="0%" x2="100%" y2="100%"><stop offset="20%" stop-color="#458267" stop-opacity="1"></stop><stop offset="80%" stop-color="#6a9d70" stop-opacity="1"></stop></linearGradient></defs><defs><linearGradient id="grad1_5" x1="33.3%" y1="0%" x2="100%" y2="100%"><stop offset="20%" stop-color="#458267" stop-opacity="1"></stop><stop offset="80%" stop-color="#26675b" stop-opacity="1"></stop></linearGradient></defs><defs><linearGradient id="grad1_6" x1="33.3%" y1="0%" x2="100%" y2="100%"><stop offset="20%" stop-color="#0d4c4b" stop-opacity="1"></stop><stop offset="80%" stop-color="#26675b" stop-opacity="1"></stop></linearGradient></defs><defs><linearGradient id="grad1_7" x1="33.3%" y1="0%" x2="100%" y2="100%"><stop offset="20%" stop-color="#0d4c4b" stop-opacity="1"></stop><stop offset="80%" stop-color="#013238" stop-opacity="1"></stop></linearGradient></defs><defs><linearGradient id="grad2_0" x1="0%" y1="0%" x2="66.7%" y2="100%"><stop offset="20%" stop-color="#fde791" stop-opacity="1"></stop><stop offset="80%" stop-color="#fde791" stop-opacity="1"></stop></linearGradient></defs><defs><linearGradient id="grad2_1" x1="0%" y1="0%" x2="66.7%" y2="100%"><stop offset="20%" stop-color="#c7d082" stop-opacity="1"></stop><stop offset="80%" stop-color="#fde791" stop-opacity="1"></stop></linearGradient></defs><defs><linearGradient id="grad2_2" x1="0%" y1="0%" x2="66.7%" y2="100%"><stop offset="20%" stop-color="#c7d082" stop-opacity="1"></stop><stop offset="80%" stop-color="#96b779" stop-opacity="1"></stop></linearGradient></defs><defs><linearGradient id="grad2_3" x1="0%" y1="0%" x2="66.7%" y2="100%"><stop offset="20%" stop-color="#6a9d70" stop-opacity="1"></stop><stop offset="80%" stop-color="#96b779" stop-opacity="1"></stop></linearGradient></defs><defs><linearGradient id="grad2_4" x1="0%" y1="0%" x2="66.7%" y2="100%"><stop offset="20%" stop-color="#6a9d70" stop-opacity="1"></stop><stop offset="80%" stop-color="#458267" stop-opacity="1"></stop></linearGradient></defs><defs><linearGradient id="grad2_5" x1="0%" y1="0%" x2="66.7%" y2="100%"><stop offset="20%" stop-color="#26675b" stop-opacity="1"></stop><stop offset="80%" stop-color="#458267" stop-opacity="1"></stop></linearGradient></defs><defs><linearGradient id="grad2_6" x1="0%" y1="0%" x2="66.7%" y2="100%"><stop offset="20%" stop-color="#26675b" stop-opacity="1"></stop><stop offset="80%" stop-color="#0d4c4b" stop-opacity="1"></stop></linearGradient></defs><defs><linearGradient id="grad2_7" x1="0%" y1="0%" x2="66.7%" y2="100%"><stop offset="20%" stop-color="#013238" stop-opacity="1"></stop><stop offset="80%" stop-color="#0d4c4b" stop-opacity="1"></stop></linearGradient></defs><g transform="translate(900, 0)"><path d="M0 486.7C-61.5 467.9 -123 449.1 -174.1 420.4C-225.3 391.6 -266 352.9 -314.7 314.7C-363.3 276.4 -419.7 238.6 -449.7 186.3C-479.7 133.9 -483.2 67 -486.7 0L0 0Z" fill="#053f42"></path><path d="M0 425.9C-53.8 409.4 -107.6 393 -152.4 367.8C-197.1 342.7 -232.8 308.8 -275.3 275.3C-317.9 241.9 -367.2 208.8 -393.5 163C-419.7 117.2 -422.8 58.6 -425.9 0L0 0Z" fill="#195954"></path><path d="M0 365.1C-46.1 351 -92.2 336.8 -130.6 315.3C-168.9 293.7 -199.5 264.7 -236 236C-272.5 207.3 -314.8 179 -337.3 139.7C-359.8 100.4 -362.4 50.2 -365.1 0L0 0Z" fill="#357462"></path><path d="M0 304.2C-38.4 292.5 -76.9 280.7 -108.8 262.7C-140.8 244.8 -166.3 220.6 -196.7 196.7C-227 172.8 -262.3 149.1 -281.1 116.4C-299.8 83.7 -302 41.8 -304.2 0L0 0Z" fill="#57906c"></path><path d="M0 243.4C-30.7 234 -61.5 224.6 -87.1 210.2C-112.6 195.8 -133 176.5 -157.3 157.3C-181.6 138.2 -209.9 119.3 -224.8 93.1C-239.8 67 -241.6 33.5 -243.4 0L0 0Z" fill="#7faa74"></path><path d="M0 182.5C-23.1 175.5 -46.1 168.4 -65.3 157.6C-84.5 146.9 -99.8 132.3 -118 118C-136.2 103.7 -157.4 89.5 -168.6 69.9C-179.9 50.2 -181.2 25.1 -182.5 0L0 0Z" fill="#aec47d"></path><path d="M0 121.7C-15.4 117 -30.7 112.3 -43.5 105.1C-56.3 97.9 -66.5 88.2 -78.7 78.7C-90.8 69.1 -104.9 59.7 -112.4 46.6C-119.9 33.5 -120.8 16.7 -121.7 0L0 0Z" fill="#e1dc89"></path><path d="M0 60.8C-7.7 58.5 -15.4 56.1 -21.8 52.5C-28.2 49 -33.3 44.1 -39.3 39.3C-45.4 34.6 -52.5 29.8 -56.2 23.3C-60 16.7 -60.4 8.4 -60.8 0L0 0Z" fill="#fde791"></path></g><g transform="translate(0, 600)"><path d="M0 -486.7C49.3 -438 98.6 -389.3 150.8 -364C203 -338.7 258.1 -336.7 312.5 -312.5C367 -288.4 420.8 -242.1 449.7 -186.3C478.6 -130.5 482.7 -65.2 486.7 0L0 0Z" fill="#053f42"></path><path d="M0 -425.9C43.1 -383.3 86.3 -340.7 131.9 -318.5C177.6 -296.3 225.8 -294.6 273.5 -273.5C321.1 -252.3 368.2 -211.8 393.5 -163C418.8 -114.2 422.3 -57.1 425.9 0L0 0Z" fill="#195954"></path><path d="M0 -365.1C37 -328.5 73.9 -292 113.1 -273C152.2 -254 193.6 -252.5 234.4 -234.4C275.2 -216.3 315.6 -181.5 337.3 -139.7C359 -97.9 362 -48.9 365.1 0L0 0Z" fill="#357462"></path><path d="M0 -304.2C30.8 -273.8 61.6 -243.3 94.2 -227.5C126.9 -211.7 161.3 -210.4 195.3 -195.3C229.4 -180.2 263 -151.3 281.1 -116.4C299.1 -81.6 301.7 -40.8 304.2 0L0 0Z" fill="#57906c"></path><path d="M0 -243.4C24.6 -219 49.3 -194.7 75.4 -182C101.5 -169.3 129 -168.3 156.3 -156.3C183.5 -144.2 210.4 -121 224.8 -93.1C239.3 -65.2 241.3 -32.6 243.4 0L0 0Z" fill="#7faa74"></path><path d="M0 -182.5C18.5 -164.3 37 -146 56.5 -136.5C76.1 -127 96.8 -126.3 117.2 -117.2C137.6 -108.1 157.8 -90.8 168.6 -69.9C179.5 -48.9 181 -24.5 182.5 0L0 0Z" fill="#aec47d"></path><path d="M0 -121.7C12.3 -109.5 24.6 -97.3 37.7 -91C50.7 -84.7 64.5 -84.2 78.1 -78.1C91.7 -72.1 105.2 -60.5 112.4 -46.6C119.7 -32.6 120.7 -16.3 121.7 0L0 0Z" fill="#e1dc89"></path><path d="M0 -60.8C6.2 -54.8 12.3 -48.7 18.8 -45.5C25.4 -42.3 32.3 -42.1 39.1 -39.1C45.9 -36 52.6 -30.3 56.2 -23.3C59.8 -16.3 60.3 -8.2 60.8 0L0 0Z" fill="#fde791"></path></g></svg>