<svg id="visual" viewBox="0 0 900 900" width="900" height="900" xmlns="http://www.w3.org/2000/svg" xmlns:xlink="http://www.w3.org/1999/xlink" version="1.1"><rect x="0" y="0" width="900" height="900" fill="#013238"></rect><path d="M0 602L13.7 606.3C27.3 610.7 54.7 619.3 82 608.5C109.3 597.7 136.7 567.3 163.8 560.2C191 553 218 569 245.2 565.7C272.3 562.3 299.7 539.7 327 539.3C354.3 539 381.7 561 409 577.5C436.3 594 463.7 605 491 615.7C518.3 626.3 545.7 636.7 573 623C600.3 609.3 627.7 571.7 654.8 571.8C682 572 709 610 736.2 625.7C763.3 641.3 790.7 634.7 818 617.3C845.3 600 872.7 572 886.3 558L900 544L900 901L886.3 901C872.7 901 845.3 901 818 901C790.7 901 763.3 901 736.2 901C709 901 682 901 654.8 901C627.7 901 600.3 901 573 901C545.7 901 518.3 901 491 901C463.7 901 436.3 901 409 901C381.7 901 354.3 901 327 901C299.7 901 272.3 901 245.2 901C218 901 191 901 163.8 901C136.7 901 109.3 901 82 901C54.7 901 27.3 901 13.7 901L0 901Z" fill="#bacddf"></path><path d="M0 636L13.7 638.2C27.3 640.3 54.7 644.7 82 650C109.3 655.3 136.7 661.7 163.8 659.8C191 658 218 648 245.2 631.3C272.3 614.7 299.7 591.3 327 592.7C354.3 594 381.7 620 409 625.2C436.3 630.3 463.7 614.7 491 599C518.3 583.3 545.7 567.7 573 575.3C600.3 583 627.7 614 654.8 627.5C682 641 709 637 736.2 621.7C763.3 606.3 790.7 579.7 818 570.7C845.3 561.7 872.7 570.3 886.3 574.7L900 579L900 901L886.3 901C872.7 901 845.3 901 818 901C790.7 901 763.3 901 736.2 901C709 901 682 901 654.8 901C627.7 901 600.3 901 573 901C545.7 901 518.3 901 491 901C463.7 901 436.3 901 409 901C381.7 901 354.3 901 327 901C299.7 901 272.3 901 245.2 901C218 901 191 901 163.8 901C136.7 901 109.3 901 82 901C54.7 901 27.3 901 13.7 901L0 901Z" fill="#9fdde6"></path><path d="M0 609L13.7 610.3C27.3 611.7 54.7 614.3 82 626.5C109.3 638.7 136.7 660.3 163.8 662.2C191 664 218 646 245.2 645.5C272.3 645 299.7 662 327 655.2C354.3 648.3 381.7 617.7 409 616.2C436.3 614.7 463.7 642.3 491 654C518.3 665.7 545.7 661.3 573 666C600.3 670.7 627.7 684.3 654.8 678.2C682 672 709 646 736.2 638.8C763.3 631.7 790.7 643.3 818 650.8C845.3 658.3 872.7 661.7 886.3 663.3L900 665L900 901L886.3 901C872.7 901 845.3 901 818 901C790.7 901 763.3 901 736.2 901C709 901 682 901 654.8 901C627.7 901 600.3 901 573 901C545.7 901 518.3 901 491 901C463.7 901 436.3 901 409 901C381.7 901 354.3 901 327 901C299.7 901 272.3 901 245.2 901C218 901 191 901 163.8 901C136.7 901 109.3 901 82 901C54.7 901 27.3 901 13.7 901L0 901Z" fill="#a0eacd"></path><path d="M0 636L13.7 649.3C27.3 662.7 54.7 689.3 82 701.8C109.3 714.3 136.7 712.7 163.8 706.3C191 700 218 689 245.2 678.3C272.3 667.7 299.7 657.3 327 652.7C354.3 648 381.7 649 409 651.7C436.3 654.3 463.7 658.7 491 658C518.3 657.3 545.7 651.7 573 656.7C600.3 661.7 627.7 677.3 654.8 683.3C682 689.3 709 685.7 736.2 677.3C763.3 669 790.7 656 818 657.5C845.3 659 872.7 675 886.3 683L900 691L900 901L886.3 901C872.7 901 845.3 901 818 901C790.7 901 763.3 901 736.2 901C709 901 682 901 654.8 901C627.7 901 600.3 901 573 901C545.7 901 518.3 901 491 901C463.7 901 436.3 901 409 901C381.7 901 354.3 901 327 901C299.7 901 272.3 901 245.2 901C218 901 191 901 163.8 901C136.7 901 109.3 901 82 901C54.7 901 27.3 901 13.7 901L0 901Z" fill="#d2eca2"></path><path d="M0 734L13.7 726.5C27.3 719 54.7 704 82 691.8C109.3 679.7 136.7 670.3 163.8 672.5C191 674.7 218 688.3 245.2 701.3C272.3 714.3 299.7 726.7 327 720.7C354.3 714.7 381.7 690.3 409 690.5C436.3 690.7 463.7 715.3 491 723C518.3 730.7 545.7 721.3 573 714.5C600.3 707.7 627.7 703.3 654.8 709C682 714.7 709 730.3 736.2 736.7C763.3 743 790.7 740 818 728.8C845.3 717.7 872.7 698.3 886.3 688.7L900 679L900 901L886.3 901C872.7 901 845.3 901 818 901C790.7 901 763.3 901 736.2 901C709 901 682 901 654.8 901C627.7 901 600.3 901 573 901C545.7 901 518.3 901 491 901C463.7 901 436.3 901 409 901C381.7 901 354.3 901 327 901C299.7 901 272.3 901 245.2 901C218 901 191 901 163.8 901C136.7 901 109.3 901 82 901C54.7 901 27.3 901 13.7 901L0 901Z" fill="#fde791"></path><path d="M0 736L13.7 729.5C27.3 723 54.7 710 82 714.2C109.3 718.3 136.7 739.7 163.8 744.3C191 749 218 737 245.2 731.5C272.3 726 299.7 727 327 723C354.3 719 381.7 710 409 714.2C436.3 718.3 463.7 735.7 491 745.7C518.3 755.7 545.7 758.3 573 759.3C600.3 760.3 627.7 759.7 654.8 760.8C682 762 709 765 736.2 756.3C763.3 747.7 790.7 727.3 818 715.3C845.3 703.3 872.7 699.7 886.3 697.8L900 696L900 901L886.3 901C872.7 901 845.3 901 818 901C790.7 901 763.3 901 736.2 901C709 901 682 901 654.8 901C627.7 901 600.3 901 573 901C545.7 901 518.3 901 491 901C463.7 901 436.3 901 409 901C381.7 901 354.3 901 327 901C299.7 901 272.3 901 245.2 901C218 901 191 901 163.8 901C136.7 901 109.3 901 82 901C54.7 901 27.3 901 13.7 901L0 901Z" fill="#fde791"></path><path d="M0 783L13.7 778C27.3 773 54.7 763 82 761.7C109.3 760.3 136.7 767.7 163.8 771.5C191 775.3 218 775.7 245.2 773.3C272.3 771 299.7 766 327 761.5C354.3 757 381.7 753 409 753.2C436.3 753.3 463.7 757.7 491 764.3C518.3 771 545.7 780 573 781.2C600.3 782.3 627.7 775.7 654.8 766.3C682 757 709 745 736.2 741.7C763.3 738.3 790.7 743.7 818 752.8C845.3 762 872.7 775 886.3 781.5L900 788L900 901L886.3 901C872.7 901 845.3 901 818 901C790.7 901 763.3 901 736.2 901C709 901 682 901 654.8 901C627.7 901 600.3 901 573 901C545.7 901 518.3 901 491 901C463.7 901 436.3 901 409 901C381.7 901 354.3 901 327 901C299.7 901 272.3 901 245.2 901C218 901 191 901 163.8 901C136.7 901 109.3 901 82 901C54.7 901 27.3 901 13.7 901L0 901Z" fill="#d2eca2"></path><path d="M0 804L13.7 799.8C27.3 795.7 54.7 787.3 82 789.2C109.3 791 136.7 803 163.8 808.7C191 814.3 218 813.7 245.2 806.8C272.3 800 299.7 787 327 786.8C354.3 786.7 381.7 799.3 409 800.3C436.3 801.3 463.7 790.7 491 783.5C518.3 776.3 545.7 772.7 573 774.8C600.3 777 627.7 785 654.8 789.3C682 793.7 709 794.3 736.2 798.2C763.3 802 790.7 809 818 807.2C845.3 805.3 872.7 794.7 886.3 789.3L900 784L900 901L886.3 901C872.7 901 845.3 901 818 901C790.7 901 763.3 901 736.2 901C709 901 682 901 654.8 901C627.7 901 600.3 901 573 901C545.7 901 518.3 901 491 901C463.7 901 436.3 901 409 901C381.7 901 354.3 901 327 901C299.7 901 272.3 901 245.2 901C218 901 191 901 163.8 901C136.7 901 109.3 901 82 901C54.7 901 27.3 901 13.7 901L0 901Z" fill="#a0eacd"></path><path d="M0 852L13.7 847C27.3 842 54.7 832 82 826.5C109.3 821 136.7 820 163.8 821.7C191 823.3 218 827.7 245.2 831.5C272.3 835.3 299.7 838.7 327 835.8C354.3 833 381.7 824 409 817.3C436.3 810.7 463.7 806.3 491 810.2C518.3 814 545.7 826 573 827.3C600.3 828.7 627.7 819.3 654.8 817.8C682 816.3 709 822.7 736.2 821.7C763.3 820.7 790.7 812.3 818 809.7C845.3 807 872.7 810 886.3 811.5L900 813L900 901L886.3 901C872.7 901 845.3 901 818 901C790.7 901 763.3 901 736.2 901C709 901 682 901 654.8 901C627.7 901 600.3 901 573 901C545.7 901 518.3 901 491 901C463.7 901 436.3 901 409 901C381.7 901 354.3 901 327 901C299.7 901 272.3 901 245.2 901C218 901 191 901 163.8 901C136.7 901 109.3 901 82 901C54.7 901 27.3 901 13.7 901L0 901Z" fill="#9fdde6"></path><path d="M0 839L13.7 843C27.3 847 54.7 855 82 860.8C109.3 866.7 136.7 870.3 163.8 871.2C191 872 218 870 245.2 869.2C272.3 868.3 299.7 868.7 327 866.5C354.3 864.3 381.7 859.7 409 855.7C436.3 851.7 463.7 848.3 491 850.7C518.3 853 545.7 861 573 863C600.3 865 627.7 861 654.8 859.5C682 858 709 859 736.2 862.3C763.3 865.7 790.7 871.3 818 872C845.3 872.7 872.7 868.3 886.3 866.2L900 864L900 901L886.3 901C872.7 901 845.3 901 818 901C790.7 901 763.3 901 736.2 901C709 901 682 901 654.8 901C627.7 901 600.3 901 573 901C545.7 901 518.3 901 491 901C463.7 901 436.3 901 409 901C381.7 901 354.3 901 327 901C299.7 901 272.3 901 245.2 901C218 901 191 901 163.8 901C136.7 901 109.3 901 82 901C54.7 901 27.3 901 13.7 901L0 901Z" fill="#bacddf"></path></svg>