<svg id="visual" viewBox="0 0 900 600" width="900" height="600" xmlns="http://www.w3.org/2000/svg" xmlns:xlink="http://www.w3.org/1999/xlink" version="1.1"><rect x="0" y="0" width="900" height="600" fill="#b5cdbf"></rect><path d="M519 0L494.2 14.3C469.3 28.7 419.7 57.3 416.2 85.8C412.7 114.3 455.3 142.7 439.2 171.2C423 199.7 348 228.3 343.3 257C338.7 285.7 404.3 314.3 420.3 343C436.3 371.7 402.7 400.3 412.3 428.8C422 457.3 475 485.7 462.3 514.2C449.7 542.7 371.3 571.3 332.2 585.7L293 600L0 600L0 585.7C0 571.3 0 542.7 0 514.2C0 485.7 0 457.3 0 428.8C0 400.3 0 371.7 0 343C0 314.3 0 285.7 0 257C0 228.3 0 199.7 0 171.2C0 142.7 0 114.3 0 85.8C0 57.3 0 28.7 0 14.3L0 0Z" fill="#fde791" stroke-linecap="round" stroke-linejoin="miter"></path></svg>