<svg id="visual" viewBox="0 0 900 600" width="900" height="600" xmlns="http://www.w3.org/2000/svg" xmlns:xlink="http://www.w3.org/1999/xlink" version="1.1"><rect x="0" y="0" width="900" height="600" fill="#dfd4fb"></rect><path d="M658 600L656.3 575C654.7 550 651.3 500 650.8 450C650.3 400 652.7 350 674.8 300C697 250 739 200 745.2 150C751.3 100 721.7 50 706.8 25L692 0L900 0L900 25C900 50 900 100 900 150C900 200 900 250 900 300C900 350 900 400 900 450C900 500 900 550 900 575L900 600Z" fill="#013238" stroke-linecap="round" stroke-linejoin="miter"></path></svg>