<svg id="visual" viewBox="0 0 900 600" width="900" height="600" xmlns="http://www.w3.org/2000/svg" xmlns:xlink="http://www.w3.org/1999/xlink" version="1.1"><rect x="0" y="0" width="900" height="600" fill="#dfd4fb"></rect><path d="M253 0L279.3 20C305.7 40 358.3 80 367.2 120C376 160 341 200 323.2 240C305.3 280 304.7 320 309 360C313.3 400 322.7 440 325.7 480C328.7 520 325.3 560 323.7 580L322 600L0 600L0 580C0 560 0 520 0 480C0 440 0 400 0 360C0 320 0 280 0 240C0 200 0 160 0 120C0 80 0 40 0 20L0 0Z" fill="#013238" stroke-linecap="round" stroke-linejoin="miter"></path></svg>