<svg id="visual" viewBox="0 0 900 450" width="900" height="450" xmlns="http://www.w3.org/2000/svg" xmlns:xlink="http://www.w3.org/1999/xlink" version="1.1"><rect x="0" y="0" width="900" height="450" fill="#fde791"></rect><path d="M0 256L129 261L257 280L386 271L514 262L643 259L771 268L900 259L900 451L771 451L643 451L514 451L386 451L257 451L129 451L0 451Z" fill="#b5cdbf"></path><path d="M0 288L129 291L257 291L386 302L514 297L643 297L771 304L900 306L900 451L771 451L643 451L514 451L386 451L257 451L129 451L0 451Z" fill="#95b1a6"></path><path d="M0 311L129 309L257 308L386 313L514 316L643 310L771 314L900 317L900 451L771 451L643 451L514 451L386 451L257 451L129 451L0 451Z" fill="#77968e"></path><path d="M0 341L129 340L257 344L386 341L514 353L643 356L771 347L900 350L900 451L771 451L643 451L514 451L386 451L257 451L129 451L0 451Z" fill="#597c77"></path><path d="M0 368L129 362L257 367L386 372L514 380L643 367L771 368L900 374L900 451L771 451L643 451L514 451L386 451L257 451L129 451L0 451Z" fill="#3d6261"></path><path d="M0 395L129 395L257 395L386 393L514 401L643 397L771 398L900 387L900 451L771 451L643 451L514 451L386 451L257 451L129 451L0 451Z" fill="#214a4c"></path><path d="M0 420L129 428L257 419L386 420L514 424L643 417L771 421L900 418L900 451L771 451L643 451L514 451L386 451L257 451L129 451L0 451Z" fill="#013238"></path></svg>