<svg id="visual" viewBox="0 0 900 600" width="900" height="600" xmlns="http://www.w3.org/2000/svg" xmlns:xlink="http://www.w3.org/1999/xlink" version="1.1"><rect x="0" y="0" width="900" height="600" fill="#b5cdbf"></rect><path d="M563 600L578.2 585.7C593.3 571.3 623.7 542.7 642.5 514.2C661.3 485.7 668.7 457.3 631.8 428.8C595 400.3 514 371.7 491 343C468 314.3 503 285.7 496.2 257C489.3 228.3 440.7 199.7 440.3 171.2C440 142.7 488 114.3 492 85.8C496 57.3 456 28.7 436 14.3L416 0L900 0L900 14.3C900 28.7 900 57.3 900 85.8C900 114.3 900 142.7 900 171.2C900 199.7 900 228.3 900 257C900 285.7 900 314.3 900 343C900 371.7 900 400.3 900 428.8C900 457.3 900 485.7 900 514.2C900 542.7 900 571.3 900 585.7L900 600Z" fill="#fde791" stroke-linecap="round" stroke-linejoin="miter"></path></svg>