<svg id="visual" viewBox="0 0 900 600" width="900" height="600" xmlns="http://www.w3.org/2000/svg" xmlns:xlink="http://www.w3.org/1999/xlink" version="1.1"><rect x="0" y="0" width="900" height="600" fill="#b5cdbf"></rect><path d="M376 0L345 14.3C314 28.7 252 57.3 228.7 85.8C205.3 114.3 220.7 142.7 274.2 171.2C327.7 199.7 419.3 228.3 431.8 257C444.3 285.7 377.7 314.3 336 343C294.3 371.7 277.7 400.3 285.7 428.8C293.7 457.3 326.3 485.7 338 514.2C349.7 542.7 340.3 571.3 335.7 585.7L331 600L0 600L0 585.7C0 571.3 0 542.7 0 514.2C0 485.7 0 457.3 0 428.8C0 400.3 0 371.7 0 343C0 314.3 0 285.7 0 257C0 228.3 0 199.7 0 171.2C0 142.7 0 114.3 0 85.8C0 57.3 0 28.7 0 14.3L0 0Z" fill="#fde791" stroke-linecap="round" stroke-linejoin="miter"></path></svg>