<svg id="visual" viewBox="0 0 900 600" width="900" height="600" xmlns="http://www.w3.org/2000/svg" xmlns:xlink="http://www.w3.org/1999/xlink" version="1.1"><rect x="0" y="0" width="900" height="600" fill="#b5cdbf"></rect><path d="M374 600L398.2 585.7C422.3 571.3 470.7 542.7 528.5 514.2C586.3 485.7 653.7 457.3 638.5 428.8C623.3 400.3 525.7 371.7 488.2 343C450.7 314.3 473.3 285.7 516.8 257C560.3 228.3 624.7 199.7 611.2 171.2C597.7 142.7 506.3 114.3 511 85.8C515.7 57.3 616.3 28.7 666.7 14.3L717 0L900 0L900 14.3C900 28.7 900 57.3 900 85.8C900 114.3 900 142.7 900 171.2C900 199.7 900 228.3 900 257C900 285.7 900 314.3 900 343C900 371.7 900 400.3 900 428.8C900 457.3 900 485.7 900 514.2C900 542.7 900 571.3 900 585.7L900 600Z" fill="#fde791" stroke-linecap="round" stroke-linejoin="miter"></path></svg>