<svg id="visual" viewBox="0 0 900 600" width="900" height="600" xmlns="http://www.w3.org/2000/svg" xmlns:xlink="http://www.w3.org/1999/xlink" version="1.1"><rect x="0" y="0" width="900" height="600" fill="#dfd4fb"></rect><path d="M441 0L420 14.3C399 28.7 357 57.3 342.5 85.8C328 114.3 341 142.7 349.2 171.2C357.3 199.7 360.7 228.3 337.3 257C314 285.7 264 314.3 240.3 343C216.7 371.7 219.3 400.3 237.3 428.8C255.3 457.3 288.7 485.7 315.2 514.2C341.7 542.7 361.3 571.3 371.2 585.7L381 600L0 600L0 585.7C0 571.3 0 542.7 0 514.2C0 485.7 0 457.3 0 428.8C0 400.3 0 371.7 0 343C0 314.3 0 285.7 0 257C0 228.3 0 199.7 0 171.2C0 142.7 0 114.3 0 85.8C0 57.3 0 28.7 0 14.3L0 0Z" fill="#013238" stroke-linecap="round" stroke-linejoin="miter"></path></svg>